# xmcd CD database file
#
# Track frame offsets:
#	150
#	25092
#	51685
#	74979
#	97262
#	116516
#	131425
#	157785
#	176865
#	198241
#
# Disc length: 2934 seconds
#
# Revision: 0
# Processed by: cddbd v1.5PL3 Copyright (c) Steve Scherf et al.
# Submitted via: CDex 1.50
#
DISCID=940b740a
DTITLE=Space Monkeez - Inframind
DYEAR=1900
DGENRE=New Age
TTITLE0=22 miles from nowhere
TTITLE1=Minddoors
TTITLE2=Low rider
TTITLE3=Bodyjailed soul
TTITLE4=Defcon
TTITLE5=Noise is my weapon
TTITLE6=Inspiration
TTITLE7=Ecstazee
TTITLE8=My lil' whore
TTITLE9=Last 5 M
EXTD=
EXTT0=
EXTT1=
EXTT2=
EXTT3=
EXTT4=
EXTT5=
EXTT6=
EXTT7=
EXTT8=
EXTT9=
PLAYORDER=
